<svg xmlns="http://www.w3.org/2000/svg" version="1.1" xmlns:xlink="http://www.w3.org/1999/xlink" xmlns:svgjs="http://svgjs.dev/svgjs" width="2000" height="277" viewBox="0 0 2000 277"><g transform="matrix(1,0,0,1,-1.2121212121212466,1.6164579908864027)"><svg viewBox="0 0 396 55" data-background-color="#ffffff" preserveAspectRatio="xMidYMid meet" height="277" width="2000" xmlns="http://www.w3.org/2000/svg" xmlns:xlink="http://www.w3.org/1999/xlink"><g id="tight-bounds" transform="matrix(1,0,0,1,0.2400000000000091,0.20215233270849353)"><svg viewBox="0 0 395.52 54.77248082757992" height="54.77248082757992" width="395.52"><g><svg viewBox="0 0 418.28046387235855 57.92439999999999" height="54.77248082757992" width="395.52"><g><svg viewBox="0 0 418.28046387235855 57.92439999999999" height="57.92439999999999" width="418.28046387235855"><g id="textblocktransform"><svg viewBox="0 0 418.28046387235855 57.92439999999999" height="57.92439999999999" width="418.28046387235855" id="textblock"><g><svg viewBox="0 0 418.28046387235855 57.92439999999999" height="57.92439999999999" width="418.28046387235855"><g><svg><g></g><g></g></svg></g><g><svg><g><svg></svg></g><g></g></svg></g><g id="text-0"><svg viewBox="0 0 418.28046387235855 57.92439999999999" height="57.92439999999999" width="418.28046387235855"><g transform="matrix(1,0,0,1,0,0)"><svg width="345.2812" viewBox="3.2 -35.15 213.64000000000001 35.8" height="57.92439999999999" data-palette-color="#4b91f1"><g class="wordmark-text-0" data-fill-palette-color="primary"><path d="M10.55-34.65L10.55-34.65Q13.35-34.65 16.2-34.63 19.05-34.6 21.8-34.5 24.55-34.4 26.95-34.15L26.95-34.15 26.6-28.6 13.35-28.6Q12.1-28.6 11.48-27.95 10.85-27.3 10.85-26.05L10.85-26.05 10.85-8.45Q10.85-7.2 11.48-6.55 12.1-5.9 13.35-5.9L13.35-5.9 26.6-5.9 26.95-0.35Q24.55-0.15 21.8-0.03 19.05 0.1 16.2 0.13 13.35 0.15 10.55 0.15L10.55 0.15Q7.25 0.15 5.23-1.78 3.2-3.7 3.2-6.8L3.2-6.8 3.2-27.7Q3.2-30.85 5.23-32.75 7.25-34.65 10.55-34.65ZM4.1-15.25L4.1-20.65 24.75-20.65 24.75-15.25 4.1-15.25ZM52.2-34.5L59.95-34.5 51.45-17.7 60.6 0 52.8 0 44.2-17.7 52.2-34.5ZM30.05-34.5L37.8-34.5 45.8-17.7 37.2 0 29.4 0 38.5-17.7 30.05-34.5ZM40.85-20.15L48.7-20.15 48.7-15.45 40.85-15.45 40.85-20.15ZM77.8-35L77.8-35Q82.65-35 85.4-34 88.15-33 89.32-30.55 90.5-28.1 90.5-23.7L90.5-23.7Q90.5-19.3 89.37-16.85 88.25-14.4 85.7-13.43 83.15-12.45 78.8-12.45L78.8-12.45Q76.5-12.45 74.3-12.65 72.09-12.85 70.2-13.15 68.3-13.45 66.95-13.78 65.59-14.1 65.09-14.4L65.09-14.4 65.25-18.2Q68.2-18.2 71.37-18.2 74.55-18.2 77.65-18.2L77.65-18.2Q79.65-18.25 80.77-18.7 81.9-19.15 82.37-20.35 82.84-21.55 82.84-23.7L82.84-23.7Q82.84-25.9 82.37-27.1 81.9-28.3 80.77-28.78 79.65-29.25 77.65-29.25L77.65-29.25Q73.05-29.25 69.75-29.2 66.45-29.15 65.3-29L65.3-29 64.55-34.5Q66.65-34.75 68.5-34.85 70.34-34.95 72.52-34.98 74.7-35 77.8-35ZM64.55-34.5L72.2-34.5 72.2 0 64.55 0 64.55-34.5ZM102.54-34.65L102.54-34.65Q105.34-34.65 108.19-34.63 111.04-34.6 113.79-34.5 116.54-34.4 118.94-34.15L118.94-34.15 118.59-28.6 105.34-28.6Q104.09-28.6 103.47-27.95 102.84-27.3 102.84-26.05L102.84-26.05 102.84-8.45Q102.84-7.2 103.47-6.55 104.09-5.9 105.34-5.9L105.34-5.9 118.59-5.9 118.94-0.35Q116.54-0.15 113.79-0.03 111.04 0.1 108.19 0.13 105.34 0.15 102.54 0.15L102.54 0.15Q99.24 0.15 97.22-1.78 95.19-3.7 95.19-6.8L95.19-6.8 95.19-27.7Q95.19-30.85 97.22-32.75 99.24-34.65 102.54-34.65ZM96.09-15.25L96.09-20.65 116.74-20.65 116.74-15.25 96.09-15.25ZM146.34-34.5L153.54-34.5 153.54-2.75Q153.54 0 150.79 0L150.79 0 146.59 0Q145.34 0 144.69-0.58 144.04-1.15 143.49-2.3L143.49-2.3 133.94-20.4Q133.34-21.55 132.77-22.95 132.19-24.35 131.79-25.65L131.79-25.65 131.24-25.65Q131.39-24.3 131.49-22.93 131.59-21.55 131.59-20.2L131.59-20.2 131.59 0 124.34 0 124.34-31.75Q124.34-34.5 127.14-34.5L127.14-34.5 131.29-34.5Q132.49-34.5 133.12-33.93 133.74-33.35 134.34-32.2L134.34-32.2 143.59-14.65Q144.19-13.5 144.84-12.1 145.49-10.7 146.09-9.2L146.09-9.2 146.69-9.2Q146.54-10.7 146.47-12.13 146.39-13.55 146.39-14.95L146.39-14.95 146.34-34.5ZM171.84-35.15L171.84-35.15Q174.39-35.15 177.39-34.88 180.39-34.6 183.24-33.75L183.24-33.75 182.74-28.7Q180.54-28.75 177.59-28.8 174.64-28.85 171.79-28.85L171.79-28.85Q170.39-28.85 169.41-28.78 168.44-28.7 167.84-28.38 167.24-28.05 166.99-27.4 166.74-26.75 166.74-25.6L166.74-25.6Q166.74-23.85 167.56-23.05 168.39-22.25 170.39-21.6L170.39-21.6 177.04-19.45Q181.19-18.05 182.79-15.65 184.39-13.25 184.39-9.35L184.39-9.35Q184.39-6.4 183.69-4.45 182.99-2.5 181.49-1.4 179.99-0.3 177.54 0.18 175.09 0.65 171.54 0.65L171.54 0.65Q169.84 0.65 166.69 0.43 163.54 0.2 159.49-0.7L159.49-0.7 159.99-6.1Q162.94-6.05 165.11-5.98 167.29-5.9 168.84-5.88 170.39-5.85 171.54-5.85L171.54-5.85Q173.54-5.85 174.66-6.1 175.79-6.35 176.24-7.1 176.69-7.85 176.69-9.25L176.69-9.25Q176.69-10.45 176.36-11.18 176.04-11.9 175.31-12.33 174.59-12.75 173.34-13.1L173.34-13.1 166.34-15.5Q162.39-16.95 160.74-19.3 159.09-21.65 159.09-25.5L159.09-25.5Q159.09-28.5 159.81-30.38 160.54-32.25 162.06-33.3 163.59-34.35 166.01-34.75 168.44-35.15 171.84-35.15ZM208.89-34.5L216.84-34.5 205.19-10.95 197.99-10.95 186.29-34.5 194.24-34.5 200.04-21.8Q200.49-20.8 200.79-19.65 201.09-18.5 201.34-17.45L201.34-17.45 201.84-17.45Q202.14-18.5 202.44-19.65 202.74-20.8 203.14-21.8L203.14-21.8 208.89-34.5ZM197.74-15.6L205.39-15.6 205.39 0 197.74 0 197.74-15.6Z" fill="#4b91f1" data-fill-palette-color="primary"></path></g></svg></g><g><svg xmlns="http://www.w3.org/2000/svg" xmlns:xlink="http://www.w3.org/1999/xlink" version="1.1" x="358.9568" y="0" viewBox="11.017823632605122 11.461749422187646 37.96369815853941 37.06825057781236" style="enable-background:new 0 0 60 60;" xml:space="preserve" height="57.92439999999999" width="59.32366387235852" class="icon-dxe-0" data-fill-palette-color="accent" id="dxe-0"><path d="M48.85 34.1L35.82 11.92A0.945 0.945 0 0 0 34.2 11.92L30 19.08 25.79 11.93A0.945 0.945 0 0 0 24.17 11.93L11.15 34.1C10.93 34.47 10.99 34.93 11.29 35.23L24.32 48.26C24.5 48.44 24.74 48.53 24.98 48.53S25.46 48.44 25.64 48.26L30 43.91 34.35 48.26C34.53 48.44 34.77 48.53 35.01 48.53S35.49 48.44 35.67 48.26L48.7 35.23C49.01 34.93 49.07 34.46 48.85 34.1M24.99 46.28L13.13 34.42 24.99 14.24 28.92 20.92 21.17 34.1C20.95 34.47 21.01 34.93 21.31 35.23L28.67 42.59zM30 22.77L36.85 34.42 30 41.27 23.15 34.42zM35.01 46.28L31.32 42.59 38.68 35.23C38.98 34.93 39.04 34.46 38.82 34.1L31.08 20.93 35.01 14.25 46.87 34.43z" fill="#4b91f1" data-fill-palette-color="accent"></path></svg></g></svg></g></svg></g></svg></g></svg></g><g></g></svg></g><defs></defs></svg><rect width="395.52" height="54.77248082757992" fill="none" stroke="none" visibility="hidden"></rect></g></svg></g></svg>